<?xml version="1.0" encoding="utf-8"?>
<!-- Generator: Adobe Illustrator 24.1.2, SVG Export Plug-In . SVG Version: 6.00 Build 0)  -->
<svg version="1.1" id="Layer_1" xmlns="http://www.w3.org/2000/svg" xmlns:xlink="http://www.w3.org/1999/xlink" x="0px" y="0px"
	 viewBox="0 0 15 15" style="enable-background:new 0 0 15 15;" xml:space="preserve">
<style type="text/css">
	.st0{fill:#1C355E;}
</style>
<g>
	<path class="st0" d="M1.6,4.2c0-0.1-0.1-0.1-0.1-0.2C2,3.5,2.5,3.1,3,2.6c0,0,0.1,0,0.1,0.1c0,0,0,0,0,0C3.6,2.2,4,1.8,4.4,1.4
		c0.6-0.6,1.4-0.8,2.3-0.6c0.1,0,0.2,0,0.2,0c0.7-0.4,1.4-0.4,2.2,0c0.1,0,0.1,0.1,0.2,0.1C9,1,8.8,1.3,8.5,1.5c0,0-0.1,0-0.1,0
		C8.2,1.4,8,1.4,7.8,1.4c0,0,0.1,0.1,0.1,0.1c1.3,1.3,2.7,2.7,4,4c0.2,0.2,0.4,0.3,0.6,0.4c0.1,0.1,0.3,0.1,0.4,0.1c0,0,0,0,0-0.1
		c-0.1-0.1-0.2-0.3-0.4-0.4c0.2-0.3,0.4-0.5,0.6-0.8c0,0,0.1,0,0.1,0.1c0.3,0.3,0.7,0.7,1,1.1c0.8,0.9,0.8,2.1,0,3
		c-1.5,1.5-3.1,3.1-4.6,4.6c-0.2,0.2-0.4,0.4-0.6,0.5c-0.9,0.7-2,0.6-2.8-0.1c-1.6-1.6-3.2-3.2-4.7-4.8c-0.3-0.3-0.7-0.7-1-1
		c-0.8-0.8-0.9-2.1,0-3C1,4.8,1.3,4.5,1.6,4.2z M2.4,4.9C2.1,5.3,1.8,5.6,1.5,5.9C1,6.3,1,6.9,1.5,7.4c1.9,1.9,3.8,3.8,5.6,5.7
		c0.5,0.5,1,0.5,1.5,0c1.6-1.6,3.2-3.2,4.8-4.8c0.1-0.1,0.2-0.2,0.2-0.3c0.2-0.3,0.2-0.5,0.1-0.8c0,0,0,0,0,0c0,0-0.1,0-0.1,0.1
		c-0.4,0.2-0.9,0.2-1.3,0.1c-0.5-0.1-0.9-0.4-1.2-0.8C10,5.5,9,4.5,8,3.4C7.6,3,7.1,2.6,6.7,2.2c-0.5-0.5-1-0.5-1.5,0
		C4.8,2.6,4.4,3,4,3.4c0,0-0.1,0.1-0.1,0.1C3.9,3.5,4,3.6,4,3.6C4.4,3.9,4.7,4.2,5,4.5C5.4,5,5.4,5.7,4.9,6.1C4.4,6.4,3.9,6.4,3.5,6
		C3.1,5.7,2.8,5.3,2.4,4.9z M4.2,4.7c-0.3,0-0.6,0.3-0.6,0.6c0,0.3,0.3,0.6,0.6,0.6c0.3,0,0.6-0.3,0.6-0.6C4.8,5,4.6,4.7,4.2,4.7z"
		/>
	<path class="st0" d="M12.2,1.1C11.9,2,11.5,3,11.2,3.9c0,0-0.1-0.1-0.1-0.1C10.5,3.2,10,2.7,9.4,2.1C9.3,2,9.3,1.9,9.3,1.8
		c0.1-0.3,0.3-0.6,0.4-0.9c0-0.1,0.1-0.2,0.2-0.1C10.7,0.9,11.5,1,12.2,1.1C12.2,1.1,12.3,1.1,12.2,1.1z"/>
	<path class="st0" d="M11.5,4.2c0-0.1,0-0.1,0-0.2c0.3-0.7,0.5-1.4,0.8-2.2c0,0,0.1-0.1,0.1-0.1c0.2,0.1,0.4,0.1,0.6,0.2
		C12.6,2.7,12.1,3.5,11.5,4.2C11.5,4.2,11.5,4.2,11.5,4.2z"/>
	<path class="st0" d="M11.9,4.6c0-0.1,0-0.1,0.1-0.2c0.3-0.6,0.7-1.1,1.1-1.7c0,0,0.1-0.1,0.2,0c0.2,0.1,0.3,0.2,0.5,0.3
		C13,3.5,12.5,4,11.9,4.6C11.9,4.6,11.9,4.6,11.9,4.6z"/>
	<path class="st0" d="M14,3.9c-0.2,0.2-0.5,0.3-0.7,0.5c-0.3,0.2-0.6,0.4-0.9,0.6c-0.1,0-0.1,0-0.2,0c0-0.1,0-0.1,0.1-0.2
		C12.6,4.4,13,4,13.4,3.6c0.1-0.1,0.2-0.1,0.3,0C13.8,3.7,13.9,3.8,14,3.9z"/>
	<path class="st0" d="M7,12c0.4,0.2,0.7,0.2,1-0.1c1.2-1.2,2.3-2.3,3.5-3.5c0.1-0.1,0.2-0.1,0.3,0c0.3,0.3,0.3,0.3,0,0.6
		c-1.1,1.1-2.2,2.2-3.4,3.3c-0.4,0.4-0.8,0.4-1.2,0C7.2,12.2,7.1,12.2,7,12C7,12.1,7,12.1,7,12z"/>
</g>
</svg>
